# xmcd
#
# Track frame offsets: 
#        150
#        16524
#        29283
#        49583
#        71616
#        94114
#        117484
#        136210
#        164924
#        181962
#        199238
#        232555
#        250637
#        267266
#        281528
#        302468
#        317836
#
# Disc length: 4431 seconds
#
# Revision: 0
# Processed by: cddbd v1.5.2PL0 Copyright (c) Steve Scherf et al.
# Submitted via: ExactAudioCopy v1.0b1
#
DISCID=df114d11
DTITLE=Various Artist - ShowCase: Independent Sounds Of Yorkshire and The Humbe
DTITLE=r
DYEAR=2009
DGENRE=Rock
TTITLE0=Wild Beasts - The Devil's Crayon
TTITLE1=Sky Larkin - Molten
TTITLE2=Rolo Tomassi - Scabs
TTITLE3=Paul Marshall - This Is War (Demo)
TTITLE4=The Officers - Mosquito
TTITLE5=Talk To Angels - He Loves Cilla
TTITLE6=Awash With Antler - Bison
TTITLE7=Kava Kava - Rise Above
TTITLE8=Stoney - Skyline
TTITLE9=Angel Brothers - Django's Caravan
TTITLE10=In The Nursery - Imperfect Design
TTITLE11=Darlings Of The Splitscreen - Turn Around
TTITLE12=Wonderswan - Furrrpile
TTITLE13=Casper Hauser - Double Glazing
TTITLE14=Bohemian Mods - History
TTITLE15=Orange 38 - Bend Those Rules
TTITLE16=Playground Mafia - We Live To Party
EXTD=
EXTT0=
EXTT1=
EXTT2=
EXTT3=
EXTT4=
EXTT5=
EXTT6=
EXTT7=
EXTT8=
EXTT9=
EXTT10=
EXTT11=
EXTT12=
EXTT13=
EXTT14=
EXTT15=
EXTT16=
PLAYORDER=
